<svg xmlns="http://www.w3.org/2000/svg" width="465.581" height="498.75" viewBox="0 0 465.581 498.75">
  <path id="Path_11" data-name="Path 11" d="M1545.107,1632.395,1410.646,1563.4v-80.746l134.462,121.418Zm0,30.282-134.462-33.327V1571l134.462,68.979Zm0,27.682-134.462,7.5v-61.568l134.462,33.313Zm0,25.291-134.462,23.872V1704.6l134.462-7.5Zm-209.429-209.276v-54.222L1234.8,1393.9v353.421h-73.822V1528.595l67.052-38.708V1382.212l5.072,2.925,107.657,62.152,1.69.976v54.2Zm39.674-125.63V1426.3l14.868,8.581-3.38,5.838-11.488-6.632v53.221h-6.762v-57.12l-167.279-96.583v153.7h-6.762V1329.695l-24.013-13.861,3.381-5.838,20.632,11.91V1294.38h6.762v31.44l167.279,96.582v-41.66Zm-273.746,386.812h28.314V1517.347h6.769v250.207h291.421v6.761H1136.689v18.815h-6.769v-18.815h-28.314Zm208.277-20.232V1598.068l25.935-14.967v164.69l74.828-1.43,134.462-23.873v18.047h6.769v-19.244l15.31-2.717v-6.839l-15.31,2.717v-17.735l15.31-.859v-6.722l-15.31.844v-18.7l15.31,3.8v-6.944l-15.31-3.785v-20.907l15.31,7.867v-7.593l-15.31-7.854v-25.679l15.31,13.834V1614.9l-15.31-13.834v-26.293h-6.769v20.194l-134.462-121.429-115.489,66.676v23.64l-30.978,17.892v165.573Z" transform="translate(-1101.606 -1294.38)" fill-rule="evenodd" opacity="0.41"/>
</svg>
