<svg xmlns="http://www.w3.org/2000/svg" width="115.293" height="132.585" viewBox="0 0 115.293 132.585">
  <g id="Group_32" data-name="Group 32" transform="translate(-79 -54)">
    <g id="Group_4" data-name="Group 4" transform="translate(-9.61 -197.912)">
      <path id="Path_6" data-name="Path 6" d="M145.914,383.908l-57.3-32.689.342-65.971L146.6,251.966l57.3,32.689-.342,65.971Z" transform="translate(0 0.198)" fill="#00a69c"/>
      <path id="Path_7" data-name="Path 7" d="M155.958,269.626l-4.184-2.417-4.415-2.549-4.417-2.551-2.285-1.318-2.13-1.231-4.419-2.551-4.415-2.549-4.415-2.551-4.417,2.551-4.415,2.549-4.417,2.551-2.132,1.231-2.285,1.318-4.417,2.551-4.415,2.549L94.6,269.626l-.233.134v96.887l.233.134,4.182,2.417h0l4.415,2.549,4.417,2.551,2.28,1.316,2.137,1.233,4.415,2.551,4.417,2.549,4.417,2.551,4.415-2.551,4.417-2.549,4.417-2.551,2.135-1.233,2.28-1.316,4.417-2.551v-4.965h-9.064L134.11,369.2l-4.417,2.549-4.415,2.549h0l-4.415-2.549-4.417-2.549-4.184-2.417h-.23v-.134l-4.417-2.549-4.417-2.551v-86.69l4.417-2.549,4.417-2.551v-.132h.228l4.187-2.417,4.417-2.551,4.417-2.549,4.415,2.549,4.417,2.551,4.187,2.417h.23v.134l4.415,2.549,4.417,2.549,4.417,2.551,4.415-2.549v-5.1Z" transform="translate(21.019 0)" fill="#6fc8c5"/>
      <g id="Group_3" data-name="Group 3" transform="translate(88.738 274.86)">
        <path id="Path_8" data-name="Path 8" d="M100.028,261.269v66.293l4.417,2.551,4.415-2.551V261.269l-4.415-2.549Z" transform="translate(-47.033 -249.992)" fill="#6fc8c5"/>
        <path id="Path_9" data-name="Path 9" d="M129.7,282.065l4.415-2.549v-15.3l-4.417-2.551-4.415-2.549-2.6-1.5h-3.636l-2.6,1.5-4.415,2.551-4.417,2.548v81.591l4.417-2.549,4.415-2.551,4.417-2.549,1.817-1.049,2.6-1.5,4.415-2.549,4.417-2.551v-15.3l-4.417-2.549-4.415,2.549v10.2l-4.417,2.551-.546.315-3.871,2.235V266.449h8.834v13.065Z" transform="translate(-19.297 -254.019)" fill="#6fc8c5"/>
        <path id="Path_10" data-name="Path 10" d="M100.069,260.442l-2.6,1.5-4.415,2.549-4.417,2.551v66.291l4.417,2.551,4.415,2.549,2.6,1.5,1.817,1.049,4.417,2.549v-15.3l-4.417,2.551-4.417-2.551V272.14l4.417-2.548,4.417,2.551v-15.3l-4.415,2.549Z" transform="translate(-88.637 -256.844)" fill="#6fc8c5"/>
      </g>
    </g>
  </g>
</svg>
